<?xml version="1.0" encoding="utf-8"?>
<!-- Generator: Adobe Illustrator 26.0.2, SVG Export Plug-In . SVG Version: 6.00 Build 0)  -->
<svg version="1.1" id="Bold" xmlns="http://www.w3.org/2000/svg" xmlns:xlink="http://www.w3.org/1999/xlink" x="0px" y="0px"
	 viewBox="0 0 512 512" style="enable-background:new 0 0 512 512;" xml:space="preserve">
<style type="text/css">
	.st0{fill:#84A98C;}
</style>
<path class="st0" d="M382.3,32.1c0,8.5-3.4,16.6-9.4,22.6L209.3,218.4c-20.8,20.8-20.8,54.6,0,75.4c0,0,0,0,0,0l163.5,163.5
	c12.3,12.7,11.9,33-0.8,45.2c-12.4,12-32.1,12-44.5,0L164,339.2c-45.8-45.9-45.8-120.1,0-166L327.7,9.5C340.2-3,360.4-3,372.9,9.5
	C378.9,15.5,382.3,23.6,382.3,32.1z"/>
</svg>
