<?xml version="1.0" encoding="utf-8"?>
<!-- Generator: Adobe Illustrator 26.0.2, SVG Export Plug-In . SVG Version: 6.00 Build 0)  -->
<svg version="1.1" id="Layer_1" xmlns:svgjs="http://svgjs.com/svgjs"
	 xmlns="http://www.w3.org/2000/svg" xmlns:xlink="http://www.w3.org/1999/xlink" x="0px" y="0px" viewBox="0 0 512 512"
	 style="enable-background:new 0 0 512 512;" xml:space="preserve">
<style type="text/css">
	.st0{fill:#CAD2C5;}
</style>
<g>
	<path class="st0" d="M9.6,372.8c-12.5-12.5-12.5-32.8,0-45.3l163.7-163.7c45.8-45.8,120.1-45.8,165.9,0l163.4,163.5
		c0.3,0.3,0.5,0.5,0.8,0.8c12.3,12.7,11.9,33-0.8,45.2s-33,11.9-45.2-0.8L294,209.1l0,0c-20.8-20.8-54.6-20.8-75.4,0L54.8,372.8
		c-6,6-14.1,9.4-22.6,9.4C23.7,382.1,15.6,378.8,9.6,372.8z"/>
</g>
</svg>
