<?xml version="1.0" encoding="utf-8"?>
<!-- Generator: Adobe Illustrator 26.0.2, SVG Export Plug-In . SVG Version: 6.00 Build 0)  -->
<svg version="1.1" id="Layer_1" xmlns="http://www.w3.org/2000/svg" xmlns:xlink="http://www.w3.org/1999/xlink" x="0px" y="0px"
	 viewBox="0 0 512 512" style="enable-background:new 0 0 512 512;" xml:space="preserve">
<style type="text/css">
	.st0{fill:#52796F;}
</style>
<g>
	<path class="st0" d="M487,195.7l-82.8-82.8c-8.5-8.2-22-8-30.2,0.5c-8,8.3-8,21.4,0,29.6l82.8,82.8c2.5,2.5,4.6,5.3,6.4,8.3
		c-0.3,0-0.6-0.2-0.9-0.2l0,0l-334.6,0.7c-11.8,0-21.3,9.6-21.3,21.3c0,11.8,9.6,21.3,21.3,21.3l0,0l334.5-0.7
		c0.6,0,1.1-0.3,1.7-0.3c-1.9,3.6-4.3,6.9-7.1,9.9L374,368.9c-8.5,8.2-8.7,21.7-0.5,30.2s21.7,8.7,30.2,0.5c0.2-0.2,0.4-0.3,0.5-0.5
		l82.8-82.8C520.2,283,520.2,229,487,195.7L487,195.7z"/>
	<path class="st0" d="M149.3,469.3h-42.7c-35.3,0-64-28.7-64-64V106.7c0-35.3,28.7-64,64-64h42.7c11.8,0,21.3-9.6,21.3-21.3
		S161.1,0,149.3,0h-42.7C47.8,0.1,0.1,47.8,0,106.7v298.7C0.1,464.2,47.8,511.9,106.7,512h42.7c11.8,0,21.3-9.6,21.3-21.3
		C170.7,478.9,161.1,469.3,149.3,469.3z"/>
</g>
</svg>
