<?xml version="1.0" encoding="utf-8"?>
<!-- Generator: Adobe Illustrator 26.0.2, SVG Export Plug-In . SVG Version: 6.00 Build 0)  -->
<svg version="1.1" id="Layer_1" xmlns="http://www.w3.org/2000/svg" xmlns:xlink="http://www.w3.org/1999/xlink" x="0px" y="0px"
	 viewBox="0 0 512 512" style="enable-background:new 0 0 512 512;" xml:space="preserve">
<style type="text/css">
	.st0{fill:#2F3E46;}
</style>
<g>
	<path class="st0" d="M256,170.7c-47.1,0-85.3,38.2-85.3,85.3s38.2,85.3,85.3,85.3s85.3-38.2,85.3-85.3S303.1,170.7,256,170.7z
		 M256,298.7c-23.6,0-42.7-19.1-42.7-42.7s19.1-42.7,42.7-42.7s42.7,19.1,42.7,42.7S279.6,298.7,256,298.7z"/>
	<path class="st0" d="M454.3,296.5l-9.5-5.5c4.3-23.2,4.3-47,0-70.2l9.5-5.5c30.6-17.7,41.1-56.8,23.5-87.5
		c-17.7-30.6-56.8-41.1-87.5-23.5l-9.5,5.5c-17.9-15.3-38.5-27.2-60.8-35V64c0-35.3-28.7-64-64-64s-64,28.7-64,64v10.9
		c-22.2,7.9-42.8,19.8-60.8,35.1l-9.5-5.5C91.1,86.9,51.9,97.4,34.2,128s-7.2,69.8,23.5,87.5l0,0l9.5,5.5c-4.3,23.2-4.3,47,0,70.2
		l-9.5,5.5c-30.6,17.7-41.1,56.8-23.5,87.5s56.8,41.1,87.5,23.5l0,0l9.5-5.5c17.9,15.3,38.5,27.2,60.8,35V448c0,35.3,28.7,64,64,64
		s64-28.7,64-64v-10.9c22.2-7.9,42.8-19.8,60.8-35.1l9.5,5.5c30.6,17.7,69.8,7.2,87.5-23.5C495.4,353.3,484.9,314.2,454.3,296.5
		L454.3,296.5L454.3,296.5z M399.9,216c7.2,26.2,7.2,53.8,0,80c-2.6,9.4,1.5,19.3,9.9,24.2l23.1,13.4c10.2,5.9,13.7,18.9,7.8,29.2
		c-5.9,10.2-18.9,13.7-29.2,7.8l0,0l-23.2-13.4c-8.4-4.9-19.1-3.4-25.9,3.5c-19,19.4-42.9,33.2-69.2,40c-9.4,2.4-16,10.9-16,20.7
		V448c0,11.8-9.6,21.3-21.3,21.3c-11.8,0-21.3-9.6-21.3-21.3v-26.7c0-9.7-6.6-18.2-16-20.7c-26.3-6.8-50.2-20.7-69.2-40.1
		c-6.8-7-17.5-8.4-25.9-3.5l-23.1,13.4c-10.2,6-23.2,2.5-29.2-7.6c-6-10.2-2.5-23.2,7.6-29.2c0.1,0,0.2-0.1,0.2-0.1l23.1-13.4
		c8.4-4.9,12.5-14.8,9.9-24.2c-7.2-26.2-7.2-53.8,0-80c2.5-9.3-1.5-19.2-9.9-24.1L79,178.4c-10.2-5.9-13.7-18.9-7.8-29.2
		s18.9-13.7,29.2-7.8l23.2,13.4c8.4,4.9,19.1,3.5,25.9-3.4c19-19.4,42.9-33.2,69.2-40c9.5-2.4,16.1-11,16-20.8V64
		c0-11.8,9.6-21.3,21.3-21.3c11.8,0,21.3,9.6,21.3,21.3v26.7c0,9.7,6.6,18.2,16,20.7c26.3,6.8,50.2,20.7,69.2,40.1
		c6.8,7,17.5,8.4,25.9,3.5l23.1-13.4c10.2-6,23.2-2.5,29.2,7.6c6,10.2,2.5,23.2-7.6,29.2c-0.1,0-0.2,0.1-0.2,0.1l-23.1,13.4
		C401.4,196.8,397.4,206.7,399.9,216L399.9,216z"/>
</g>
</svg>
