<?xml version="1.0" encoding="utf-8"?>
<!-- Generator: Adobe Illustrator 26.0.2, SVG Export Plug-In . SVG Version: 6.00 Build 0)  -->
<svg version="1.1" id="Layer_1" xmlns="http://www.w3.org/2000/svg" xmlnsXlink="http://www.w3.org/1999/xlink" x="0px" y="0px"
	 viewBox="0 0 286.7 247.6" style="enable-background:new 0 0 286.7 247.6;" xmlSpace="preserve">
<style type="text/css">
	.st0{fill:#52796F;}
	.st1{fill:#FFFFFF;}
</style>
<path class="st0" d="M0,0h143.4c79.2,0,143.4,64.2,143.4,143.4v104.2l0,0H144.4C64.6,247.6,0,182.9,0,103.2V0L0,0z"/>
<path class="st1" d="M70,63h14.8l1.5,15.6h0.6c9.2-10.2,20.2-18.2,32.8-18.2c16.1,0,24.7,7.9,29.1,20.5
	c10.9-12.1,21.9-20.5,34.7-20.5c21.6,0,32,14.6,32,42v68h-17.8v-65.7c0-20-6.2-28.6-19.6-28.6c-8.2,0-16.6,5.4-26.4,16.5v77.8h-17.8
	v-65.7c0-20-6.2-28.6-19.6-28.6c-7.9,0-16.6,5.4-26.4,16.5v77.8H70V63z"/>
</svg>
