<svg xmlns="http://www.w3.org/2000/svg" viewBox="0 0 798.19 798.19"><defs><style>.cls-1{fill:none;stroke:#000;stroke-miterlimit:10;stroke-width:40px;}</style></defs><g id="Layer_2" data-name="Layer 2"><g id="Outline"><path d="M591.09,228.43H525a106.87,106.87,0,0,0-104.53-85.34H377.76a106.86,106.86,0,0,0-104.53,85.34H207.09a21.33,21.33,0,0,0,0,42.66h21.34V548.43A106.78,106.78,0,0,0,335.09,655.09h128A106.79,106.79,0,0,0,569.76,548.43V271.09h21.33a21.33,21.33,0,1,0,0-42.66ZM377.76,185.76h42.67a64.14,64.14,0,0,1,60.35,42.67H317.41A64.13,64.13,0,0,1,377.76,185.76ZM527.09,548.43a64,64,0,0,1-64,64h-128a64,64,0,0,1-64-64V271.09h256Z"/><path d="M356.43,527.09a21.33,21.33,0,0,0,21.33-21.33v-128a21.34,21.34,0,0,0-42.67,0v128A21.33,21.33,0,0,0,356.43,527.09Z"/><path d="M441.76,527.09a21.33,21.33,0,0,0,21.33-21.33v-128a21.33,21.33,0,0,0-42.66,0v128A21.33,21.33,0,0,0,441.76,527.09Z"/><circle class="cls-1" cx="399.09" cy="399.09" r="379.09"/></g></g></svg>