<?xml version="1.0" encoding="utf-8"?>
<!-- Generator: Adobe Illustrator 26.0.2, SVG Export Plug-In . SVG Version: 6.00 Build 0)  -->
<svg version="1.1" id="Bold" xmlns="http://www.w3.org/2000/svg" xmlns:xlink="http://www.w3.org/1999/xlink" x="0px" y="0px"
	 viewBox="0 0 512 512" style="enable-background:new 0 0 512 512;" xml:space="preserve">
<style type="text/css">
	.st0{fill:#84A98C;}
</style>
<path class="st0" d="M129.7,480c0-8.5,3.4-16.6,9.4-22.6l163.7-163.7c20.8-20.8,20.8-54.6,0-75.4c0,0,0,0,0,0L139.3,54.7
	c-12.3-12.7-11.9-33,0.8-45.2c12.4-12,32.1-12,44.5,0L348,172.9c45.8,45.9,45.8,120.1,0,166L184.3,502.5
	c-12.5,12.5-32.8,12.5-45.3,0C133.1,496.6,129.7,488.5,129.7,480z"/>
</svg>
